solid OpenSCAD_Model
  facet normal 0 0 1
    outer loop
      vertex -27.4168 83.244 0
      vertex -31.2234 65.6228 0
      vertex -21.9193 69.2878 0
    endloop
  endfacet
  facet normal 0 -0 1
    outer loop
      vertex -31.2234 65.6228 0
      vertex -27.4168 83.244 0
      vertex -36.7209 79.579 0
    endloop
  endfacet
  facet normal -0.930417 -0.366502 0
    outer loop
      vertex -31.2234 65.6228 -10
      vertex -36.7209 79.579 0
      vertex -36.7209 79.579 -10
    endloop
  endfacet
  facet normal -0.930417 -0.366502 0
    outer loop
      vertex -36.7209 79.579 0
      vertex -31.2234 65.6228 -10
      vertex -31.2234 65.6228 0
    endloop
  endfacet
  facet normal -0.366503 0.930417 0
    outer loop
      vertex -27.4168 83.244 -10
      vertex -36.7209 79.579 0
      vertex -27.4168 83.244 0
    endloop
  endfacet
  facet normal -0.366503 0.930417 0
    outer loop
      vertex -36.7209 79.579 0
      vertex -27.4168 83.244 -10
      vertex -36.7209 79.579 -10
    endloop
  endfacet
  facet normal 0 0 -1
    outer loop
      vertex -31.2234 65.6228 -10
      vertex -27.4168 83.244 -10
      vertex -21.9193 69.2878 -10
    endloop
  endfacet
  facet normal 0 0 -1
    outer loop
      vertex -27.4168 83.244 -10
      vertex -31.2234 65.6228 -10
      vertex -36.7209 79.579 -10
    endloop
  endfacet
  facet normal 0.366503 -0.930417 0
    outer loop
      vertex -31.2234 65.6228 -10
      vertex -21.9193 69.2878 0
      vertex -31.2234 65.6228 0
    endloop
  endfacet
  facet normal 0.366503 -0.930417 0
    outer loop
      vertex -21.9193 69.2878 0
      vertex -31.2234 65.6228 -10
      vertex -21.9193 69.2878 -10
    endloop
  endfacet
  facet normal 0.930417 0.366502 0
    outer loop
      vertex -21.9193 69.2878 0
      vertex -27.4168 83.244 -10
      vertex -27.4168 83.244 0
    endloop
  endfacet
  facet normal 0.930417 0.366502 0
    outer loop
      vertex -27.4168 83.244 -10
      vertex -21.9193 69.2878 0
      vertex -21.9193 69.2878 -10
    endloop
  endfacet
  facet normal 0.930417 -0.366502 0
    outer loop
      vertex 31.2234 65.6228 0
      vertex 36.7209 79.579 -10
      vertex 36.7209 79.579 0
    endloop
  endfacet
  facet normal 0.930417 -0.366502 0
    outer loop
      vertex 36.7209 79.579 -10
      vertex 31.2234 65.6228 0
      vertex 31.2234 65.6228 -10
    endloop
  endfacet
  facet normal 0 0 1
    outer loop
      vertex 27.4168 83.244 0
      vertex 31.2234 65.6228 0
      vertex 36.7209 79.579 0
    endloop
  endfacet
  facet normal 0 0 1
    outer loop
      vertex 31.2234 65.6228 0
      vertex 27.4168 83.244 0
      vertex 21.9193 69.2878 0
    endloop
  endfacet
  facet normal 0 0 -1
    outer loop
      vertex 31.2234 65.6228 -10
      vertex 27.4168 83.244 -10
      vertex 36.7209 79.579 -10
    endloop
  endfacet
  facet normal 0 -0 -1
    outer loop
      vertex 27.4168 83.244 -10
      vertex 31.2234 65.6228 -10
      vertex 21.9193 69.2878 -10
    endloop
  endfacet
  facet normal -0.930417 0.366502 0
    outer loop
      vertex 21.9193 69.2878 -10
      vertex 27.4168 83.244 0
      vertex 27.4168 83.244 -10
    endloop
  endfacet
  facet normal -0.930417 0.366502 0
    outer loop
      vertex 27.4168 83.244 0
      vertex 21.9193 69.2878 -10
      vertex 21.9193 69.2878 0
    endloop
  endfacet
  facet normal 0.366503 0.930417 -0
    outer loop
      vertex 36.7209 79.579 -10
      vertex 27.4168 83.244 0
      vertex 36.7209 79.579 0
    endloop
  endfacet
  facet normal 0.366503 0.930417 0
    outer loop
      vertex 27.4168 83.244 0
      vertex 36.7209 79.579 -10
      vertex 27.4168 83.244 -10
    endloop
  endfacet
  facet normal -0.366503 -0.930417 0
    outer loop
      vertex 21.9193 69.2878 -10
      vertex 31.2234 65.6228 0
      vertex 21.9193 69.2878 0
    endloop
  endfacet
  facet normal -0.366503 -0.930417 -0
    outer loop
      vertex 31.2234 65.6228 0
      vertex 21.9193 69.2878 -10
      vertex 31.2234 65.6228 -10
    endloop
  endfacet
  facet normal 0 0 1
    outer loop
      vertex -96.3051 29.1646 0
      vertex -84.1699 15.8328 0
      vertex -81.7507 25.5358 0
    endloop
  endfacet
  facet normal 0 0 1
    outer loop
      vertex -84.1699 15.8328 0
      vertex -96.3051 29.1646 0
      vertex -98.7243 19.4617 0
    endloop
  endfacet
  facet normal 0.241921 0.970296 -0
    outer loop
      vertex -81.7507 25.5358 -10
      vertex -96.3051 29.1646 0
      vertex -81.7507 25.5358 0
    endloop
  endfacet
  facet normal 0.241921 0.970296 0
    outer loop
      vertex -96.3051 29.1646 0
      vertex -81.7507 25.5358 -10
      vertex -96.3051 29.1646 -10
    endloop
  endfacet
  facet normal -0.241927 -0.970294 0
    outer loop
      vertex -98.7243 19.4617 -10
      vertex -84.1699 15.8328 0
      vertex -98.7243 19.4617 0
    endloop
  endfacet
  facet normal -0.241927 -0.970294 -0
    outer loop
      vertex -84.1699 15.8328 0
      vertex -98.7243 19.4617 -10
      vertex -84.1699 15.8328 -10
    endloop
  endfacet
  facet normal -0.970296 0.241921 0
    outer loop
      vertex -98.7243 19.4617 -10
      vertex -96.3051 29.1646 0
      vertex -96.3051 29.1646 -10
    endloop
  endfacet
  facet normal -0.970296 0.241921 0
    outer loop
      vertex -96.3051 29.1646 0
      vertex -98.7243 19.4617 -10
      vertex -98.7243 19.4617 0
    endloop
  endfacet
  facet normal 0 0 -1
    outer loop
      vertex -84.1699 15.8328 -10
      vertex -96.3051 29.1646 -10
      vertex -81.7507 25.5358 -10
    endloop
  endfacet
  facet normal 0 -0 -1
    outer loop
      vertex -96.3051 29.1646 -10
      vertex -84.1699 15.8328 -10
      vertex -98.7243 19.4617 -10
    endloop
  endfacet
  facet normal 0.970296 -0.241919 0
    outer loop
      vertex -84.1699 15.8328 0
      vertex -81.7507 25.5358 -10
      vertex -81.7507 25.5358 0
    endloop
  endfacet
  facet normal 0.970296 -0.241919 0
    outer loop
      vertex -81.7507 25.5358 -10
      vertex -84.1699 15.8328 0
      vertex -84.1699 15.8328 -10
    endloop
  endfacet
  facet normal 0.241927 -0.970294 0
    outer loop
      vertex 84.1699 15.8328 -10
      vertex 98.7243 19.4617 0
      vertex 84.1699 15.8328 0
    endloop
  endfacet
  facet normal 0.241927 -0.970294 0
    outer loop
      vertex 98.7243 19.4617 0
      vertex 84.1699 15.8328 -10
      vertex 98.7243 19.4617 -10
    endloop
  endfacet
  facet normal 0 0 1
    outer loop
      vertex 96.3051 29.1646 0
      vertex 84.1699 15.8328 0
      vertex 98.7243 19.4617 0
    endloop
  endfacet
  facet normal 0 -0 1
    outer loop
      vertex 84.1699 15.8328 0
      vertex 96.3051 29.1646 0
      vertex 81.7507 25.5358 0
    endloop
  endfacet
  facet normal 0 0 -1
    outer loop
      vertex 84.1699 15.8328 -10
      vertex 96.3051 29.1646 -10
      vertex 98.7243 19.4617 -10
    endloop
  endfacet
  facet normal 0 0 -1
    outer loop
      vertex 96.3051 29.1646 -10
      vertex 84.1699 15.8328 -10
      vertex 81.7507 25.5358 -10
    endloop
  endfacet
  facet normal -0.241921 0.970296 0
    outer loop
      vertex 96.3051 29.1646 -10
      vertex 81.7507 25.5358 0
      vertex 96.3051 29.1646 0
    endloop
  endfacet
  facet normal -0.241921 0.970296 0
    outer loop
      vertex 81.7507 25.5358 0
      vertex 96.3051 29.1646 -10
      vertex 81.7507 25.5358 -10
    endloop
  endfacet
  facet normal 0.970296 0.241921 0
    outer loop
      vertex 98.7243 19.4617 0
      vertex 96.3051 29.1646 -10
      vertex 96.3051 29.1646 0
    endloop
  endfacet
  facet normal 0.970296 0.241921 0
    outer loop
      vertex 96.3051 29.1646 -10
      vertex 98.7243 19.4617 0
      vertex 98.7243 19.4617 -10
    endloop
  endfacet
  facet normal -0.970296 -0.241919 0
    outer loop
      vertex 84.1699 15.8328 -10
      vertex 81.7507 25.5358 0
      vertex 81.7507 25.5358 -10
    endloop
  endfacet
  facet normal -0.970296 -0.241919 0
    outer loop
      vertex 81.7507 25.5358 0
      vertex 84.1699 15.8328 -10
      vertex 84.1699 15.8328 0
    endloop
  endfacet
endsolid OpenSCAD_Model
