999
DXF generated by pstoedit version 3.75
  0
SECTION
  2
HEADER
  9
$ACADVER
  1
AC1014
  9
$HANDSEED
  5
22
  9
$MEASUREMENT
 70
1
  9
$INSUNITS
 70
4
  9
$LUNITS
 70
4
  9
$EXTMIN
 10
0
 20
0
 30
0.0
  9
$EXTMAX
 10
1058.33
 20
1058.33
 30
0.0
  0
ENDSEC
  0
SECTION
  2
TABLES
  0
TABLE
  2
VPORT
  5
8
330
0
100
AcDbSymbolTable
 70
     4
  0
VPORT
  5
2E
330
8
100
AcDbSymbolTableRecord
100
AcDbViewportTableRecord
  2
*ACTIVE
 70
     0
 10
0.0
 20
0.0
 11
1.0
 21
1.0
 12
210
 22
148.5
 13
0.0
 23
0.0
 14
10.0
 24
10.0
 15
10.0
 25
10.0
 16
0.0
 26
0.0
 36
1.0
 17
0.0
 27
0.0
 37
0.0
 40
340.9950045922664
 41
1.239944521497919
 42
50.0
 43
0.0
 44
0.0
 50
0.0
 51
0.0
 71
     0
 72
   100
 73
     1
 74
     3
 75
     0
 76
     0
 77
     0
 78
     0
  0
ENDTAB
  0
TABLE
  2
LTYPE
  5
5
330
0
100
AcDbSymbolTable
 70
     1
  0
LTYPE
  5
14
330
5
100
AcDbSymbolTableRecord
100
AcDbLinetypeTableRecord
  2
BYBLOCK
 70
     0
  3

 72
    65
 73
     0
 40
0.0
  0
LTYPE
  5
15
330
5
100
AcDbSymbolTableRecord
100
AcDbLinetypeTableRecord
  2
BYLAYER
 70
     0
  3

 72
    65
 73
     0
 40
0.0
  0
LTYPE
  5
16
330
5
100
AcDbSymbolTableRecord
100
AcDbLinetypeTableRecord
  2
CONTINUOUS
 70
     0
  3
Solid line
 72
    65
 73
     0
 40
0.0
  0
LTYPE
  5
f0
100
AcDbSymbolTableRecord
100
AcDbLinetypeTableRecord
  2
DOT
 70
0
  3
Dot . . . . . . . . . . . . . . . . . . . . . .
 72
65
 73
2
 40
2.54
 49
0
 74
0
 49
-2.54
 74
0
  0
LTYPE
  5
f1
100
AcDbSymbolTableRecord
100
AcDbLinetypeTableRecord
  2
DASHED
 70
0
  3
Dashed __ __ __ __ __ __ __ __ __ __ __ __ __ _
 72
65
 73
2
 40
7.62
 49
5.08
 74
0
 49
-2.54
 74
0
  0
LTYPE
  5
f2
100
AcDbSymbolTableRecord
100
AcDbLinetypeTableRecord
  2
DASHDOT
 70
0
  3
Dash dot __ . __ . __ . __ . __ . __ . __ . __
 72
65
 73
4
 40
10.16
 49
5.08
 74
0
 49
-2.54
 74
0
 49
0
 74
0
 49
-2.54
 74
0
  0
LTYPE
  5
f3
100
AcDbSymbolTableRecord
100
AcDbLinetypeTableRecord
  2
DIVIDE
 70
0
  3
Divide ____ ..____ ..____ ..____ ..____
 72
65
 73
6
 40
12.7
 49
5.08
 74
0
 49
-2.54
 74
0
 49
0
 74
0
 49
-2.54
 74
0
 49
0
 74
0
 49
-2.54
 74
0
  0
ENDTAB
  0
TABLE
  2
LAYER
  5
2
330
0
100
AcDbSymbolTable
 70
4
  0
LAYER
  5
10
330
2
100
AcDbSymbolTableRecord
100
AcDbLayerTableRecord
  2
0
 70
     0
 62
     7
  6
CONTINUOUS
  0
LAYER
  5
165
100
AcDbSymbolTableRecord
100
AcDbLayerTableRecord
  2
C00-00-00-BLACK
 70
0
 62
7
  6
CONTINUOUS
  0
LAYER
  5
166
100
AcDbSymbolTableRecord
100
AcDbLayerTableRecord
  2
CFF-FF-FF-WHITE
 70
0
 62
7
  6
CONTINUOUS
  0
ENDTAB
  0
TABLE
  2
STYLE
  5
3
330
0
100
AcDbSymbolTable
 70
     1
  0
STYLE
  5
11
330
3
100
AcDbSymbolTableRecord
100
AcDbTextStyleTableRecord
  2
STANDARD
 70
     0
 40
0.0
 41
1.0
 50
0.0
 71
     0
 42
2.5
  3
txt
  4

  0
ENDTAB
  0
TABLE
  2
VIEW
  5
6
330
0
100
AcDbSymbolTable
 70
     0
  0
ENDTAB
  0
TABLE
  2
UCS
  5
7
330
0
100
AcDbSymbolTable
 70
     0
  0
ENDTAB
  0
TABLE
  2
APPID
  5
9
330
0
100
AcDbSymbolTable
 70
     2
  0
APPID
  5
12
330
9
100
AcDbSymbolTableRecord
100
AcDbRegAppTableRecord
  2
ACAD
 70
     0
  0
APPID
  5
2B
330
9
100
AcDbSymbolTableRecord
100
AcDbRegAppTableRecord
  2
URBANX
 70
     0
  0
ENDTAB
  0
TABLE
  2
DIMSTYLE
  5
A
330
0
100
AcDbSymbolTable
 70
     1
  0
DIMSTYLE
105
27
330
A
100
AcDbSymbolTableRecord
100
AcDbDimStyleTableRecord
  2
ISO-25
 70
     0
  3

  4

  5

  6

  7

 40
1.0
 41
2.5
 42
0.625
 43
3.75
 44
1.25
 45
0.0
 46
0.0
 47
0.0
 48
0.0
140
2.5
141
2.5
142
0.0
143
0.03937007874016
144
1.0
145
0.0
146
1.0
147
0.625
 71
     0
 72
     0
 73
     0
 74
     0
 75
     0
 76
     0
 77
     1
 78
     8
170
     0
171
     3
172
     1
173
     0
174
     0
175
     0
176
     0
177
     0
178
     0
270
     2
271
     2
272
     2
273
     2
274
     3
340
11
275
     0
280
     0
281
     0
282
     0
283
     0
284
     8
285
     0
286
     0
287
     3
288
     0
  0
ENDTAB
  0
TABLE
  2
BLOCK_RECORD
  5
1
330
0
100
AcDbSymbolTable
 70
     1
  0
BLOCK_RECORD
  5
1F
102
{ACAD_XDICTIONARY
360
52
102
}
330
1
100
AcDbSymbolTableRecord
100
AcDbBlockTableRecord
  2
*MODEL_SPACE
  0
BLOCK_RECORD
  5
1B
102
{ACAD_XDICTIONARY
360
50
102
}
330
1
100
AcDbSymbolTableRecord
100
AcDbBlockTableRecord
  2
*PAPER_SPACE
  0
ENDTAB
  0
ENDSEC
  0
SECTION
  2
BLOCKS
  0
BLOCK
  5
20
330
1F
100
AcDbEntity
  8
0
100
AcDbBlockBegin
  2
*MODEL_SPACE
 70
     0
 10
0.0
 20
0.0
 30
0.0
  3
*MODEL_SPACE
  1

  0
ENDBLK
  5
21
330
1F
100
AcDbEntity
  8
0
100
AcDbBlockEnd
  0
BLOCK
  5
1C
330
1B
100
AcDbEntity
 67
     1
  8
0
100
AcDbBlockBegin
  2
*PAPER_SPACE
  1

  0
ENDBLK
  5
1D
330
1B
100
AcDbEntity
 67
     1
  8
0
100
AcDbBlockEnd
  0
ENDSEC
  0
SECTION
  2
ENTITIES
  0
LWPOLYLINE
  5
ff
100
AcDbEntity
  8
C00-00-00-BLACK
100
AcDbPolyline
 90
6
 70
 0
  6
CONTINUOUS
 10
25.1327
 20
385.456
 30
0.0
 10
18.824
 20
384.628
 30
0.0
 10
14.2243
 20
382.176
 30
0.0
 10
11.0121
 20
378.144
 30
0.0
 10
8.86612
 20
372.579
 30
0.0
 10
7.46485
 20
365.527
 30
0.0
  0
LWPOLYLINE
  5
100
100
AcDbEntity
  8
C00-00-00-BLACK
100
AcDbPolyline
 90
6
 70
 0
  6
CONTINUOUS
 10
7.46485
 20
365.527
 30
0.0
 10
5.90004
 20
353.845
 30
0.0
 10
3.98129
 20
336.986
 30
0.0
 10
2.11169
 20
316.459
 30
0.0
 10
0.694323
 20
293.778
 30
0.0
 10
0.132292
 20
270.454
 30
0.0
  0
LINE
  5
101
100
AcDbEntity
  8
C00-00-00-BLACK
100
AcDbLine
  6
CONTINUOUS
 10
0.132292
 20
270.454
 30
0.0
 11
0.132292
 21
50.4543
 31
0.0
  0
LWPOLYLINE
  5
102
100
AcDbEntity
  8
C00-00-00-BLACK
100
AcDbPolyline
 90
6
 70
 0
  6
CONTINUOUS
 10
0.132292
 20
50.4543
 30
0.0
 10
0.755198
 20
42.5853
 30
0.0
 10
2.58679
 20
34.9809
 30
0.0
 10
5.57136
 20
27.7755
 30
0.0
 10
9.65323
 20
21.1035
 30
0.0
 10
14.7767
 20
15.0992
 30
0.0
  0
LWPOLYLINE
  5
103
100
AcDbEntity
  8
C00-00-00-BLACK
100
AcDbPolyline
 90
6
 70
 0
  6
CONTINUOUS
 10
14.7767
 20
15.0992
 30
0.0
 10
20.7817
 20
9.97505
 30
0.0
 10
27.4541
 20
5.89284
 30
0.0
 10
34.6594
 20
2.90826
 30
0.0
 10
42.2633
 20
1.077
 30
0.0
 10
50.1315
 20
0.454752
 30
0.0
  0
LINE
  5
104
100
AcDbEntity
  8
C00-00-00-BLACK
100
AcDbLine
  6
CONTINUOUS
 10
50.1315
 20
0.454752
 30
0.0
 11
240.132
 21
0.454752
 31
0.0
  0
LWPOLYLINE
  5
105
100
AcDbEntity
  8
C00-00-00-BLACK
100
AcDbPolyline
 90
6
 70
 0
  6
CONTINUOUS
 10
240.132
 20
0.454752
 30
0.0
 10
248
 20
1.077
 30
0.0
 10
255.605
 20
2.90826
 30
0.0
 10
262.81
 20
5.89284
 30
0.0
 10
269.483
 20
9.97505
 30
0.0
 10
275.488
 20
15.0992
 30
0.0
  0
LWPOLYLINE
  5
106
100
AcDbEntity
  8
C00-00-00-BLACK
100
AcDbPolyline
 90
6
 70
 0
  6
CONTINUOUS
 10
275.488
 20
15.0992
 30
0.0
 10
280.611
 20
21.1035
 30
0.0
 10
284.693
 20
27.7755
 30
0.0
 10
287.678
 20
34.9809
 30
0.0
 10
289.509
 20
42.5853
 30
0.0
 10
290.132
 20
50.4543
 30
0.0
  0
LINE
  5
107
100
AcDbEntity
  8
C00-00-00-BLACK
100
AcDbLine
  6
CONTINUOUS
 10
290.132
 20
50.4543
 30
0.0
 11
290.132
 21
270.454
 31
0.0
  0
LWPOLYLINE
  5
108
100
AcDbEntity
  8
C00-00-00-BLACK
100
AcDbPolyline
 90
6
 70
 0
  6
CONTINUOUS
 10
290.132
 20
270.454
 30
0.0
 10
289.57
 20
293.778
 30
0.0
 10
288.153
 20
316.459
 30
0.0
 10
286.283
 20
336.986
 30
0.0
 10
284.365
 20
353.845
 30
0.0
 10
282.8
 20
365.527
 30
0.0
  0
LWPOLYLINE
  5
109
100
AcDbEntity
  8
C00-00-00-BLACK
100
AcDbPolyline
 90
6
 70
 0
  6
CONTINUOUS
 10
282.8
 20
365.527
 30
0.0
 10
281.398
 20
372.58
 30
0.0
 10
279.252
 20
378.144
 30
0.0
 10
276.04
 20
382.176
 30
0.0
 10
271.44
 20
384.628
 30
0.0
 10
265.132
 20
385.456
 30
0.0
  0
LWPOLYLINE
  5
10a
100
AcDbEntity
  8
C00-00-00-BLACK
100
AcDbPolyline
 90
6
 70
 0
  6
CONTINUOUS
 10
265.132
 20
385.456
 30
0.0
 10
258.824
 20
384.628
 30
0.0
 10
254.224
 20
382.176
 30
0.0
 10
251.012
 20
378.144
 30
0.0
 10
248.866
 20
372.579
 30
0.0
 10
247.465
 20
365.527
 30
0.0
  0
LWPOLYLINE
  5
10b
100
AcDbEntity
  8
C00-00-00-BLACK
100
AcDbPolyline
 90
6
 70
 0
  6
CONTINUOUS
 10
247.465
 20
365.527
 30
0.0
 10
245.901
 20
353.845
 30
0.0
 10
243.981
 20
336.986
 30
0.0
 10
242.111
 20
316.459
 30
0.0
 10
240.694
 20
293.778
 30
0.0
 10
240.132
 20
270.454
 30
0.0
  0
LWPOLYLINE
  5
10c
100
AcDbEntity
  8
C00-00-00-BLACK
100
AcDbPolyline
 90
6
 70
 0
  6
CONTINUOUS
 10
240.132
 20
270.454
 30
0.0
 10
239.457
 20
293.778
 30
0.0
 10
237.756
 20
316.459
 30
0.0
 10
235.513
 20
336.986
 30
0.0
 10
233.21
 20
353.845
 30
0.0
 10
231.333
 20
365.527
 30
0.0
  0
LWPOLYLINE
  5
10d
100
AcDbEntity
  8
C00-00-00-BLACK
100
AcDbPolyline
 90
6
 70
 0
  6
CONTINUOUS
 10
231.333
 20
365.527
 30
0.0
 10
229.652
 20
372.58
 30
0.0
 10
227.076
 20
378.144
 30
0.0
 10
223.222
 20
382.176
 30
0.0
 10
217.702
 20
384.628
 30
0.0
 10
210.133
 20
385.456
 30
0.0
  0
LWPOLYLINE
  5
10e
100
AcDbEntity
  8
C00-00-00-BLACK
100
AcDbPolyline
 90
6
 70
 0
  6
CONTINUOUS
 10
210.133
 20
385.456
 30
0.0
 10
202.563
 20
384.628
 30
0.0
 10
197.043
 20
382.176
 30
0.0
 10
193.188
 20
378.144
 30
0.0
 10
190.613
 20
372.579
 30
0.0
 10
188.932
 20
365.527
 30
0.0
  0
LWPOLYLINE
  5
10f
100
AcDbEntity
  8
C00-00-00-BLACK
100
AcDbPolyline
 90
6
 70
 0
  6
CONTINUOUS
 10
188.932
 20
365.527
 30
0.0
 10
187.054
 20
353.845
 30
0.0
 10
184.751
 20
336.986
 30
0.0
 10
182.507
 20
316.459
 30
0.0
 10
180.806
 20
293.778
 30
0.0
 10
180.132
 20
270.454
 30
0.0
  0
LWPOLYLINE
  5
110
100
AcDbEntity
  8
C00-00-00-BLACK
100
AcDbPolyline
 90
6
 70
 0
  6
CONTINUOUS
 10
180.132
 20
270.454
 30
0.0
 10
179.345
 20
293.778
 30
0.0
 10
177.36
 20
316.459
 30
0.0
 10
174.743
 20
336.986
 30
0.0
 10
172.057
 20
353.845
 30
0.0
 10
169.867
 20
365.527
 30
0.0
  0
LWPOLYLINE
  5
111
100
AcDbEntity
  8
C00-00-00-BLACK
100
AcDbPolyline
 90
6
 70
 0
  6
CONTINUOUS
 10
169.867
 20
365.527
 30
0.0
 10
167.905
 20
372.58
 30
0.0
 10
164.9
 20
378.144
 30
0.0
 10
160.403
 20
382.176
 30
0.0
 10
153.964
 20
384.628
 30
0.0
 10
145.132
 20
385.456
 30
0.0
  0
LWPOLYLINE
  5
112
100
AcDbEntity
  8
C00-00-00-BLACK
100
AcDbPolyline
 90
6
 70
 0
  6
CONTINUOUS
 10
145.132
 20
385.456
 30
0.0
 10
136.301
 20
384.628
 30
0.0
 10
129.861
 20
382.176
 30
0.0
 10
125.364
 20
378.144
 30
0.0
 10
122.359
 20
372.579
 30
0.0
 10
120.398
 20
365.527
 30
0.0
  0
LWPOLYLINE
  5
113
100
AcDbEntity
  8
C00-00-00-BLACK
100
AcDbPolyline
 90
6
 70
 0
  6
CONTINUOUS
 10
120.398
 20
365.527
 30
0.0
 10
118.207
 20
353.845
 30
0.0
 10
115.521
 20
336.986
 30
0.0
 10
112.904
 20
316.459
 30
0.0
 10
110.92
 20
293.778
 30
0.0
 10
110.133
 20
270.454
 30
0.0
  0
LWPOLYLINE
  5
114
100
AcDbEntity
  8
C00-00-00-BLACK
100
AcDbPolyline
 90
6
 70
 0
  6
CONTINUOUS
 10
110.133
 20
270.454
 30
0.0
 10
109.458
 20
293.778
 30
0.0
 10
107.757
 20
316.459
 30
0.0
 10
105.513
 20
336.986
 30
0.0
 10
103.21
 20
353.845
 30
0.0
 10
101.333
 20
365.527
 30
0.0
  0
LWPOLYLINE
  5
115
100
AcDbEntity
  8
C00-00-00-BLACK
100
AcDbPolyline
 90
6
 70
 0
  6
CONTINUOUS
 10
101.333
 20
365.527
 30
0.0
 10
99.6515
 20
372.58
 30
0.0
 10
97.0762
 20
378.144
 30
0.0
 10
93.2214
 20
382.176
 30
0.0
 10
87.7017
 20
384.628
 30
0.0
 10
80.1317
 20
385.456
 30
0.0
  0
LWPOLYLINE
  5
116
100
AcDbEntity
  8
C00-00-00-BLACK
100
AcDbPolyline
 90
6
 70
 0
  6
CONTINUOUS
 10
80.1317
 20
385.456
 30
0.0
 10
72.5622
 20
384.628
 30
0.0
 10
67.0428
 20
382.176
 30
0.0
 10
63.1882
 20
378.144
 30
0.0
 10
60.613
 20
372.579
 30
0.0
 10
58.9319
 20
365.527
 30
0.0
  0
LWPOLYLINE
  5
117
100
AcDbEntity
  8
C00-00-00-BLACK
100
AcDbPolyline
 90
6
 70
 0
  6
CONTINUOUS
 10
58.9319
 20
365.527
 30
0.0
 10
57.054
 20
353.845
 30
0.0
 10
54.7512
 20
336.986
 30
0.0
 10
52.5073
 20
316.459
 30
0.0
 10
50.8061
 20
293.778
 30
0.0
 10
50.1315
 20
270.454
 30
0.0
  0
LWPOLYLINE
  5
118
100
AcDbEntity
  8
C00-00-00-BLACK
100
AcDbPolyline
 90
6
 70
 0
  6
CONTINUOUS
 10
50.1315
 20
270.454
 30
0.0
 10
49.5695
 20
293.778
 30
0.0
 10
48.1521
 20
316.459
 30
0.0
 10
46.2825
 20
336.986
 30
0.0
 10
44.3638
 20
353.845
 30
0.0
 10
42.799
 20
365.527
 30
0.0
  0
LWPOLYLINE
  5
119
100
AcDbEntity
  8
C00-00-00-BLACK
100
AcDbPolyline
 90
6
 70
 0
  6
CONTINUOUS
 10
42.799
 20
365.527
 30
0.0
 10
41.3983
 20
372.58
 30
0.0
 10
39.2525
 20
378.144
 30
0.0
 10
36.0403
 20
382.176
 30
0.0
 10
31.4408
 20
384.628
 30
0.0
 10
25.1327
 20
385.456
 30
0.0
  0
LINE
  5
11a
100
AcDbEntity
  8
C00-00-00-BLACK
100
AcDbLine
  6
CONTINUOUS
 10
25.1327
 20
385.456
 30
0.0
 11
25.1327
 21
385.456
 31
0.0
  0
LWPOLYLINE
  5
11b
100
AcDbEntity
  8
C00-00-00-BLACK
100
AcDbPolyline
 90
6
 70
 0
  6
CONTINUOUS
 10
25.1327
 20
378.629
 30
0.0
 10
25.6343
 20
378.549
 30
0.0
 10
26.0701
 20
378.324
 30
0.0
 10
26.4138
 20
377.98
 30
0.0
 10
26.6392
 20
377.544
 30
0.0
 10
26.7202
 20
377.042
 30
0.0
  0
LWPOLYLINE
  5
11c
100
AcDbEntity
  8
C00-00-00-BLACK
100
AcDbPolyline
 90
6
 70
 0
  6
CONTINUOUS
 10
26.7202
 20
377.042
 30
0.0
 10
26.6392
 20
376.539
 30
0.0
 10
26.4138
 20
376.104
 30
0.0
 10
26.0701
 20
375.76
 30
0.0
 10
25.6343
 20
375.535
 30
0.0
 10
25.1327
 20
375.454
 30
0.0
  0
LWPOLYLINE
  5
11d
100
AcDbEntity
  8
C00-00-00-BLACK
100
AcDbPolyline
 90
6
 70
 0
  6
CONTINUOUS
 10
25.1327
 20
375.454
 30
0.0
 10
24.631
 20
375.535
 30
0.0
 10
24.1952
 20
375.76
 30
0.0
 10
23.8515
 20
376.104
 30
0.0
 10
23.6261
 20
376.539
 30
0.0
 10
23.5452
 20
377.042
 30
0.0
  0
LWPOLYLINE
  5
11e
100
AcDbEntity
  8
C00-00-00-BLACK
100
AcDbPolyline
 90
6
 70
 0
  6
CONTINUOUS
 10
23.5452
 20
377.042
 30
0.0
 10
23.6261
 20
377.544
 30
0.0
 10
23.8516
 20
377.98
 30
0.0
 10
24.1952
 20
378.324
 30
0.0
 10
24.631
 20
378.549
 30
0.0
 10
25.1327
 20
378.629
 30
0.0
  0
LINE
  5
11f
100
AcDbEntity
  8
C00-00-00-BLACK
100
AcDbLine
  6
CONTINUOUS
 10
25.1327
 20
378.629
 30
0.0
 11
25.1327
 21
378.629
 31
0.0
  0
LWPOLYLINE
  5
120
100
AcDbEntity
  8
C00-00-00-BLACK
100
AcDbPolyline
 90
6
 70
 0
  6
CONTINUOUS
 10
80.1317
 20
378.629
 30
0.0
 10
80.6339
 20
378.549
 30
0.0
 10
81.0697
 20
378.324
 30
0.0
 10
81.4132
 20
377.98
 30
0.0
 10
81.6384
 20
377.544
 30
0.0
 10
81.7192
 20
377.042
 30
0.0
  0
LWPOLYLINE
  5
121
100
AcDbEntity
  8
C00-00-00-BLACK
100
AcDbPolyline
 90
6
 70
 0
  6
CONTINUOUS
 10
81.7192
 20
377.042
 30
0.0
 10
81.6384
 20
376.539
 30
0.0
 10
81.4132
 20
376.104
 30
0.0
 10
81.0697
 20
375.76
 30
0.0
 10
80.6338
 20
375.535
 30
0.0
 10
80.1317
 20
375.454
 30
0.0
  0
LWPOLYLINE
  5
122
100
AcDbEntity
  8
C00-00-00-BLACK
100
AcDbPolyline
 90
6
 70
 0
  6
CONTINUOUS
 10
80.1317
 20
375.454
 30
0.0
 10
79.63
 20
375.535
 30
0.0
 10
79.1942
 20
375.76
 30
0.0
 10
78.8505
 20
376.104
 30
0.0
 10
78.6252
 20
376.539
 30
0.0
 10
78.5442
 20
377.042
 30
0.0
  0
LWPOLYLINE
  5
123
100
AcDbEntity
  8
C00-00-00-BLACK
100
AcDbPolyline
 90
6
 70
 0
  6
CONTINUOUS
 10
78.5442
 20
377.042
 30
0.0
 10
78.6252
 20
377.544
 30
0.0
 10
78.8505
 20
377.98
 30
0.0
 10
79.1942
 20
378.324
 30
0.0
 10
79.63
 20
378.549
 30
0.0
 10
80.1317
 20
378.629
 30
0.0
  0
LINE
  5
124
100
AcDbEntity
  8
C00-00-00-BLACK
100
AcDbLine
  6
CONTINUOUS
 10
80.1317
 20
378.629
 30
0.0
 11
80.1317
 21
378.629
 31
0.0
  0
LWPOLYLINE
  5
125
100
AcDbEntity
  8
C00-00-00-BLACK
100
AcDbPolyline
 90
6
 70
 0
  6
CONTINUOUS
 10
145.132
 20
378.629
 30
0.0
 10
145.634
 20
378.549
 30
0.0
 10
146.07
 20
378.324
 30
0.0
 10
146.413
 20
377.98
 30
0.0
 10
146.639
 20
377.544
 30
0.0
 10
146.72
 20
377.042
 30
0.0
  0
LWPOLYLINE
  5
126
100
AcDbEntity
  8
C00-00-00-BLACK
100
AcDbPolyline
 90
6
 70
 0
  6
CONTINUOUS
 10
146.72
 20
377.042
 30
0.0
 10
146.639
 20
376.539
 30
0.0
 10
146.413
 20
376.104
 30
0.0
 10
146.07
 20
375.76
 30
0.0
 10
145.634
 20
375.535
 30
0.0
 10
145.132
 20
375.454
 30
0.0
  0
LWPOLYLINE
  5
127
100
AcDbEntity
  8
C00-00-00-BLACK
100
AcDbPolyline
 90
6
 70
 0
  6
CONTINUOUS
 10
145.132
 20
375.454
 30
0.0
 10
144.63
 20
375.535
 30
0.0
 10
144.195
 20
375.76
 30
0.0
 10
143.851
 20
376.104
 30
0.0
 10
143.626
 20
376.539
 30
0.0
 10
143.545
 20
377.042
 30
0.0
  0
LWPOLYLINE
  5
128
100
AcDbEntity
  8
C00-00-00-BLACK
100
AcDbPolyline
 90
6
 70
 0
  6
CONTINUOUS
 10
143.545
 20
377.042
 30
0.0
 10
143.626
 20
377.544
 30
0.0
 10
143.851
 20
377.98
 30
0.0
 10
144.195
 20
378.324
 30
0.0
 10
144.63
 20
378.549
 30
0.0
 10
145.132
 20
378.629
 30
0.0
  0
LINE
  5
129
100
AcDbEntity
  8
C00-00-00-BLACK
100
AcDbLine
  6
CONTINUOUS
 10
145.132
 20
378.629
 30
0.0
 11
145.132
 21
378.629
 31
0.0
  0
LWPOLYLINE
  5
12a
100
AcDbEntity
  8
C00-00-00-BLACK
100
AcDbPolyline
 90
6
 70
 0
  6
CONTINUOUS
 10
210.133
 20
378.629
 30
0.0
 10
210.635
 20
378.549
 30
0.0
 10
211.07
 20
378.324
 30
0.0
 10
211.414
 20
377.98
 30
0.0
 10
211.639
 20
377.544
 30
0.0
 10
211.72
 20
377.042
 30
0.0
  0
LWPOLYLINE
  5
12b
100
AcDbEntity
  8
C00-00-00-BLACK
100
AcDbPolyline
 90
6
 70
 0
  6
CONTINUOUS
 10
211.72
 20
377.042
 30
0.0
 10
211.639
 20
376.539
 30
0.0
 10
211.414
 20
376.104
 30
0.0
 10
211.07
 20
375.76
 30
0.0
 10
210.635
 20
375.535
 30
0.0
 10
210.133
 20
375.454
 30
0.0
  0
LWPOLYLINE
  5
12c
100
AcDbEntity
  8
C00-00-00-BLACK
100
AcDbPolyline
 90
6
 70
 0
  6
CONTINUOUS
 10
210.133
 20
375.454
 30
0.0
 10
209.631
 20
375.535
 30
0.0
 10
209.195
 20
375.76
 30
0.0
 10
208.851
 20
376.104
 30
0.0
 10
208.626
 20
376.539
 30
0.0
 10
208.545
 20
377.042
 30
0.0
  0
LWPOLYLINE
  5
12d
100
AcDbEntity
  8
C00-00-00-BLACK
100
AcDbPolyline
 90
6
 70
 0
  6
CONTINUOUS
 10
208.545
 20
377.042
 30
0.0
 10
208.626
 20
377.544
 30
0.0
 10
208.851
 20
377.98
 30
0.0
 10
209.195
 20
378.324
 30
0.0
 10
209.631
 20
378.549
 30
0.0
 10
210.133
 20
378.629
 30
0.0
  0
LINE
  5
12e
100
AcDbEntity
  8
C00-00-00-BLACK
100
AcDbLine
  6
CONTINUOUS
 10
210.133
 20
378.629
 30
0.0
 11
210.133
 21
378.629
 31
0.0
  0
LWPOLYLINE
  5
12f
100
AcDbEntity
  8
C00-00-00-BLACK
100
AcDbPolyline
 90
6
 70
 0
  6
CONTINUOUS
 10
265.132
 20
378.629
 30
0.0
 10
265.634
 20
378.549
 30
0.0
 10
266.069
 20
378.324
 30
0.0
 10
266.413
 20
377.98
 30
0.0
 10
266.638
 20
377.544
 30
0.0
 10
266.719
 20
377.042
 30
0.0
  0
LWPOLYLINE
  5
130
100
AcDbEntity
  8
C00-00-00-BLACK
100
AcDbPolyline
 90
6
 70
 0
  6
CONTINUOUS
 10
266.719
 20
377.042
 30
0.0
 10
266.638
 20
376.539
 30
0.0
 10
266.413
 20
376.104
 30
0.0
 10
266.069
 20
375.76
 30
0.0
 10
265.633
 20
375.535
 30
0.0
 10
265.132
 20
375.454
 30
0.0
  0
LWPOLYLINE
  5
131
100
AcDbEntity
  8
C00-00-00-BLACK
100
AcDbPolyline
 90
6
 70
 0
  6
CONTINUOUS
 10
265.132
 20
375.454
 30
0.0
 10
264.63
 20
375.535
 30
0.0
 10
264.194
 20
375.76
 30
0.0
 10
263.851
 20
376.104
 30
0.0
 10
263.625
 20
376.539
 30
0.0
 10
263.544
 20
377.042
 30
0.0
  0
LWPOLYLINE
  5
132
100
AcDbEntity
  8
C00-00-00-BLACK
100
AcDbPolyline
 90
6
 70
 0
  6
CONTINUOUS
 10
263.544
 20
377.042
 30
0.0
 10
263.625
 20
377.544
 30
0.0
 10
263.851
 20
377.98
 30
0.0
 10
264.194
 20
378.324
 30
0.0
 10
264.63
 20
378.549
 30
0.0
 10
265.132
 20
378.629
 30
0.0
  0
LINE
  5
133
100
AcDbEntity
  8
C00-00-00-BLACK
100
AcDbLine
  6
CONTINUOUS
 10
265.132
 20
378.629
 30
0.0
 11
265.132
 21
378.629
 31
0.0
  0
LWPOLYLINE
  5
134
100
AcDbEntity
  8
C00-00-00-BLACK
100
AcDbPolyline
 90
6
 70
 0
  6
CONTINUOUS
 10
36.1322
 20
233.454
 30
0.0
 10
37.0808
 20
233.301
 30
0.0
 10
37.9043
 20
232.875
 30
0.0
 10
38.5536
 20
232.226
 30
0.0
 10
38.9794
 20
231.402
 30
0.0
 10
39.1322
 20
230.454
 30
0.0
  0
LWPOLYLINE
  5
135
100
AcDbEntity
  8
C00-00-00-BLACK
100
AcDbPolyline
 90
6
 70
 0
  6
CONTINUOUS
 10
39.1322
 20
230.454
 30
0.0
 10
38.9794
 20
229.506
 30
0.0
 10
38.5536
 20
228.683
 30
0.0
 10
37.9043
 20
228.033
 30
0.0
 10
37.0808
 20
227.608
 30
0.0
 10
36.1322
 20
227.455
 30
0.0
  0
LWPOLYLINE
  5
136
100
AcDbEntity
  8
C00-00-00-BLACK
100
AcDbPolyline
 90
6
 70
 0
  6
CONTINUOUS
 10
36.1322
 20
227.455
 30
0.0
 10
35.6603
 20
227.492
 30
0.0
 10
35.2041
 20
227.601
 30
0.0
 10
34.7718
 20
227.78
 30
0.0
 10
34.3715
 20
228.025
 30
0.0
 10
34.0114
 20
228.333
 30
0.0
  0
LWPOLYLINE
  5
137
100
AcDbEntity
  8
C00-00-00-BLACK
100
AcDbPolyline
 90
6
 70
 0
  6
CONTINUOUS
 10
34.0114
 20
228.333
 30
0.0
 10
33.704
 20
228.693
 30
0.0
 10
33.459
 20
229.093
 30
0.0
 10
33.2797
 20
229.525
 30
0.0
 10
33.1696
 20
229.982
 30
0.0
 10
33.1322
 20
230.454
 30
0.0
  0
LWPOLYLINE
  5
138
100
AcDbEntity
  8
C00-00-00-BLACK
100
AcDbPolyline
 90
6
 70
 0
  6
CONTINUOUS
 10
33.1322
 20
230.454
 30
0.0
 10
33.1696
 20
230.926
 30
0.0
 10
33.2797
 20
231.383
 30
0.0
 10
33.459
 20
231.815
 30
0.0
 10
33.704
 20
232.216
 30
0.0
 10
34.0114
 20
232.576
 30
0.0
  0
LWPOLYLINE
  5
139
100
AcDbEntity
  8
C00-00-00-BLACK
100
AcDbPolyline
 90
6
 70
 0
  6
CONTINUOUS
 10
34.0114
 20
232.576
 30
0.0
 10
34.3715
 20
232.883
 30
0.0
 10
34.7718
 20
233.128
 30
0.0
 10
35.2041
 20
233.306
 30
0.0
 10
35.6603
 20
233.416
 30
0.0
 10
36.1322
 20
233.454
 30
0.0
  0
LINE
  5
13a
100
AcDbEntity
  8
C00-00-00-BLACK
100
AcDbLine
  6
CONTINUOUS
 10
36.1322
 20
233.454
 30
0.0
 11
36.1322
 21
233.454
 31
0.0
  0
LWPOLYLINE
  5
13b
100
AcDbEntity
  8
C00-00-00-BLACK
100
AcDbPolyline
 90
6
 70
 0
  6
CONTINUOUS
 10
115.132
 20
233.454
 30
0.0
 10
116.08
 20
233.301
 30
0.0
 10
116.904
 20
232.875
 30
0.0
 10
117.553
 20
232.226
 30
0.0
 10
117.979
 20
231.402
 30
0.0
 10
118.132
 20
230.454
 30
0.0
  0
LWPOLYLINE
  5
13c
100
AcDbEntity
  8
C00-00-00-BLACK
100
AcDbPolyline
 90
6
 70
 0
  6
CONTINUOUS
 10
118.132
 20
230.454
 30
0.0
 10
117.979
 20
229.506
 30
0.0
 10
117.553
 20
228.683
 30
0.0
 10
116.904
 20
228.033
 30
0.0
 10
116.08
 20
227.608
 30
0.0
 10
115.132
 20
227.455
 30
0.0
  0
LWPOLYLINE
  5
13d
100
AcDbEntity
  8
C00-00-00-BLACK
100
AcDbPolyline
 90
6
 70
 0
  6
CONTINUOUS
 10
115.132
 20
227.455
 30
0.0
 10
114.184
 20
227.608
 30
0.0
 10
113.361
 20
228.033
 30
0.0
 10
112.711
 20
228.682
 30
0.0
 10
112.285
 20
229.506
 30
0.0
 10
112.132
 20
230.454
 30
0.0
  0
LWPOLYLINE
  5
13e
100
AcDbEntity
  8
C00-00-00-BLACK
100
AcDbPolyline
 90
6
 70
 0
  6
CONTINUOUS
 10
112.132
 20
230.454
 30
0.0
 10
112.285
 20
231.402
 30
0.0
 10
112.711
 20
232.226
 30
0.0
 10
113.361
 20
232.875
 30
0.0
 10
114.184
 20
233.301
 30
0.0
 10
115.132
 20
233.454
 30
0.0
  0
LINE
  5
13f
100
AcDbEntity
  8
C00-00-00-BLACK
100
AcDbLine
  6
CONTINUOUS
 10
115.132
 20
233.454
 30
0.0
 11
115.132
 21
233.454
 31
0.0
  0
LWPOLYLINE
  5
140
100
AcDbEntity
  8
C00-00-00-BLACK
100
AcDbPolyline
 90
6
 70
 0
  6
CONTINUOUS
 10
175.132
 20
233.454
 30
0.0
 10
175.605
 20
233.416
 30
0.0
 10
176.061
 20
233.306
 30
0.0
 10
176.493
 20
233.128
 30
0.0
 10
176.894
 20
232.883
 30
0.0
 10
177.254
 20
232.576
 30
0.0
  0
LWPOLYLINE
  5
141
100
AcDbEntity
  8
C00-00-00-BLACK
100
AcDbPolyline
 90
6
 70
 0
  6
CONTINUOUS
 10
177.254
 20
232.576
 30
0.0
 10
177.561
 20
232.216
 30
0.0
 10
177.806
 20
231.815
 30
0.0
 10
177.985
 20
231.383
 30
0.0
 10
178.095
 20
230.926
 30
0.0
 10
178.132
 20
230.454
 30
0.0
  0
LWPOLYLINE
  5
142
100
AcDbEntity
  8
C00-00-00-BLACK
100
AcDbPolyline
 90
6
 70
 0
  6
CONTINUOUS
 10
178.132
 20
230.454
 30
0.0
 10
178.095
 20
229.982
 30
0.0
 10
177.985
 20
229.525
 30
0.0
 10
177.806
 20
229.093
 30
0.0
 10
177.561
 20
228.693
 30
0.0
 10
177.254
 20
228.333
 30
0.0
  0
LWPOLYLINE
  5
143
100
AcDbEntity
  8
C00-00-00-BLACK
100
AcDbPolyline
 90
6
 70
 0
  6
CONTINUOUS
 10
177.254
 20
228.333
 30
0.0
 10
176.894
 20
228.025
 30
0.0
 10
176.493
 20
227.78
 30
0.0
 10
176.061
 20
227.601
 30
0.0
 10
175.605
 20
227.492
 30
0.0
 10
175.132
 20
227.455
 30
0.0
  0
LWPOLYLINE
  5
144
100
AcDbEntity
  8
C00-00-00-BLACK
100
AcDbPolyline
 90
6
 70
 0
  6
CONTINUOUS
 10
175.132
 20
227.455
 30
0.0
 10
174.184
 20
227.608
 30
0.0
 10
173.361
 20
228.033
 30
0.0
 10
172.711
 20
228.682
 30
0.0
 10
172.285
 20
229.506
 30
0.0
 10
172.132
 20
230.454
 30
0.0
  0
LWPOLYLINE
  5
145
100
AcDbEntity
  8
C00-00-00-BLACK
100
AcDbPolyline
 90
6
 70
 0
  6
CONTINUOUS
 10
172.132
 20
230.454
 30
0.0
 10
172.285
 20
231.402
 30
0.0
 10
172.711
 20
232.226
 30
0.0
 10
173.361
 20
232.875
 30
0.0
 10
174.184
 20
233.301
 30
0.0
 10
175.132
 20
233.454
 30
0.0
  0
LINE
  5
146
100
AcDbEntity
  8
C00-00-00-BLACK
100
AcDbLine
  6
CONTINUOUS
 10
175.132
 20
233.454
 30
0.0
 11
175.132
 21
233.454
 31
0.0
  0
LWPOLYLINE
  5
147
100
AcDbEntity
  8
C00-00-00-BLACK
100
AcDbPolyline
 90
6
 70
 0
  6
CONTINUOUS
 10
254.132
 20
233.454
 30
0.0
 10
254.604
 20
233.416
 30
0.0
 10
255.06
 20
233.306
 30
0.0
 10
255.493
 20
233.128
 30
0.0
 10
255.893
 20
232.883
 30
0.0
 10
256.253
 20
232.576
 30
0.0
  0
LWPOLYLINE
  5
148
100
AcDbEntity
  8
C00-00-00-BLACK
100
AcDbPolyline
 90
6
 70
 0
  6
CONTINUOUS
 10
256.253
 20
232.576
 30
0.0
 10
256.561
 20
232.216
 30
0.0
 10
256.806
 20
231.815
 30
0.0
 10
256.985
 20
231.383
 30
0.0
 10
257.095
 20
230.926
 30
0.0
 10
257.132
 20
230.454
 30
0.0
  0
LWPOLYLINE
  5
149
100
AcDbEntity
  8
C00-00-00-BLACK
100
AcDbPolyline
 90
6
 70
 0
  6
CONTINUOUS
 10
257.132
 20
230.454
 30
0.0
 10
257.095
 20
229.982
 30
0.0
 10
256.985
 20
229.525
 30
0.0
 10
256.806
 20
229.093
 30
0.0
 10
256.561
 20
228.693
 30
0.0
 10
256.253
 20
228.333
 30
0.0
  0
LWPOLYLINE
  5
14a
100
AcDbEntity
  8
C00-00-00-BLACK
100
AcDbPolyline
 90
6
 70
 0
  6
CONTINUOUS
 10
256.253
 20
228.333
 30
0.0
 10
255.893
 20
228.025
 30
0.0
 10
255.493
 20
227.78
 30
0.0
 10
255.06
 20
227.601
 30
0.0
 10
254.604
 20
227.492
 30
0.0
 10
254.132
 20
227.455
 30
0.0
  0
LWPOLYLINE
  5
14b
100
AcDbEntity
  8
C00-00-00-BLACK
100
AcDbPolyline
 90
6
 70
 0
  6
CONTINUOUS
 10
254.132
 20
227.455
 30
0.0
 10
253.184
 20
227.608
 30
0.0
 10
252.361
 20
228.033
 30
0.0
 10
251.711
 20
228.682
 30
0.0
 10
251.285
 20
229.506
 30
0.0
 10
251.132
 20
230.454
 30
0.0
  0
LWPOLYLINE
  5
14c
100
AcDbEntity
  8
C00-00-00-BLACK
100
AcDbPolyline
 90
6
 70
 0
  6
CONTINUOUS
 10
251.132
 20
230.454
 30
0.0
 10
251.285
 20
231.402
 30
0.0
 10
251.711
 20
232.226
 30
0.0
 10
252.361
 20
232.875
 30
0.0
 10
253.184
 20
233.301
 30
0.0
 10
254.132
 20
233.454
 30
0.0
  0
LINE
  5
14d
100
AcDbEntity
  8
C00-00-00-BLACK
100
AcDbLine
  6
CONTINUOUS
 10
254.132
 20
233.454
 30
0.0
 11
254.132
 21
233.454
 31
0.0
  0
LWPOLYLINE
  5
14e
100
AcDbEntity
  8
C00-00-00-BLACK
100
AcDbPolyline
 90
6
 70
 0
  6
CONTINUOUS
 10
100.132
 20
9.45335
 30
0.0
 10
101.08
 20
9.30051
 30
0.0
 10
101.904
 20
8.87488
 30
0.0
 10
102.553
 20
8.22581
 30
0.0
 10
102.979
 20
7.40265
 30
0.0
 10
103.132
 20
6.45474
 30
0.0
  0
LWPOLYLINE
  5
14f
100
AcDbEntity
  8
C00-00-00-BLACK
100
AcDbPolyline
 90
6
 70
 0
  6
CONTINUOUS
 10
103.132
 20
6.45474
 30
0.0
 10
103.095
 20
5.98215
 30
0.0
 10
102.985
 20
5.52557
 30
0.0
 10
102.806
 20
5.09306
 30
0.0
 10
102.561
 20
4.6927
 30
0.0
 10
102.253
 20
4.33257
 30
0.0
  0
LWPOLYLINE
  5
150
100
AcDbEntity
  8
C00-00-00-BLACK
100
AcDbPolyline
 90
6
 70
 0
  6
CONTINUOUS
 10
102.253
 20
4.33257
 30
0.0
 10
101.893
 20
4.02523
 30
0.0
 10
101.493
 20
3.78019
 30
0.0
 10
101.061
 20
3.60091
 30
0.0
 10
100.604
 20
3.49082
 30
0.0
 10
100.132
 20
3.45336
 30
0.0
  0
LWPOLYLINE
  5
151
100
AcDbEntity
  8
C00-00-00-BLACK
100
AcDbPolyline
 90
6
 70
 0
  6
CONTINUOUS
 10
100.132
 20
3.45336
 30
0.0
 10
99.6605
 20
3.49082
 30
0.0
 10
99.2043
 20
3.60091
 30
0.0
 10
98.772
 20
3.78019
 30
0.0
 10
98.3717
 20
4.02523
 30
0.0
 10
98.0115
 20
4.33257
 30
0.0
  0
LWPOLYLINE
  5
152
100
AcDbEntity
  8
C00-00-00-BLACK
100
AcDbPolyline
 90
6
 70
 0
  6
CONTINUOUS
 10
98.0115
 20
4.33257
 30
0.0
 10
97.7037
 20
4.6927
 30
0.0
 10
97.4586
 20
5.09306
 30
0.0
 10
97.2795
 20
5.52557
 30
0.0
 10
97.1697
 20
5.98215
 30
0.0
 10
97.1324
 20
6.45474
 30
0.0
  0
LWPOLYLINE
  5
153
100
AcDbEntity
  8
C00-00-00-BLACK
100
AcDbPolyline
 90
6
 70
 0
  6
CONTINUOUS
 10
97.1324
 20
6.45474
 30
0.0
 10
97.2854
 20
7.40265
 30
0.0
 10
97.7114
 20
8.22582
 30
0.0
 10
98.3609
 20
8.87488
 30
0.0
 10
99.1844
 20
9.30051
 30
0.0
 10
100.132
 20
9.45335
 30
0.0
  0
LINE
  5
154
100
AcDbEntity
  8
C00-00-00-BLACK
100
AcDbLine
  6
CONTINUOUS
 10
100.132
 20
9.45335
 30
0.0
 11
100.132
 21
9.45335
 31
0.0
  0
LWPOLYLINE
  5
155
100
AcDbEntity
  8
C00-00-00-BLACK
100
AcDbPolyline
 90
6
 70
 0
  6
CONTINUOUS
 10
145.132
 20
9.45335
 30
0.0
 10
145.604
 20
9.41656
 30
0.0
 10
146.06
 20
9.30687
 30
0.0
 10
146.493
 20
9.1278
 30
0.0
 10
146.893
 20
8.88285
 30
0.0
 10
147.253
 20
8.57553
 30
0.0
  0
LWPOLYLINE
  5
156
100
AcDbEntity
  8
C00-00-00-BLACK
100
AcDbPolyline
 90
6
 70
 0
  6
CONTINUOUS
 10
147.253
 20
8.57553
 30
0.0
 10
147.561
 20
8.2154
 30
0.0
 10
147.806
 20
7.81512
 30
0.0
 10
147.985
 20
7.38282
 30
0.0
 10
148.095
 20
6.92665
 30
0.0
 10
148.132
 20
6.45474
 30
0.0
  0
LWPOLYLINE
  5
157
100
AcDbEntity
  8
C00-00-00-BLACK
100
AcDbPolyline
 90
6
 70
 0
  6
CONTINUOUS
 10
148.132
 20
6.45474
 30
0.0
 10
148.095
 20
5.98215
 30
0.0
 10
147.985
 20
5.52557
 30
0.0
 10
147.806
 20
5.09306
 30
0.0
 10
147.562
 20
4.6927
 30
0.0
 10
147.254
 20
4.33257
 30
0.0
  0
LWPOLYLINE
  5
158
100
AcDbEntity
  8
C00-00-00-BLACK
100
AcDbPolyline
 90
6
 70
 0
  6
CONTINUOUS
 10
147.254
 20
4.33257
 30
0.0
 10
146.894
 20
4.02523
 30
0.0
 10
146.493
 20
3.78019
 30
0.0
 10
146.06
 20
3.60091
 30
0.0
 10
145.604
 20
3.49082
 30
0.0
 10
145.132
 20
3.45336
 30
0.0
  0
LWPOLYLINE
  5
159
100
AcDbEntity
  8
C00-00-00-BLACK
100
AcDbPolyline
 90
6
 70
 0
  6
CONTINUOUS
 10
145.132
 20
3.45336
 30
0.0
 10
144.66
 20
3.49082
 30
0.0
 10
144.204
 20
3.60091
 30
0.0
 10
143.772
 20
3.78019
 30
0.0
 10
143.372
 20
4.02523
 30
0.0
 10
143.012
 20
4.33257
 30
0.0
  0
LWPOLYLINE
  5
15a
100
AcDbEntity
  8
C00-00-00-BLACK
100
AcDbPolyline
 90
6
 70
 0
  6
CONTINUOUS
 10
143.012
 20
4.33257
 30
0.0
 10
142.704
 20
4.6927
 30
0.0
 10
142.459
 20
5.09306
 30
0.0
 10
142.279
 20
5.52557
 30
0.0
 10
142.17
 20
5.98215
 30
0.0
 10
142.132
 20
6.45474
 30
0.0
  0
LWPOLYLINE
  5
15b
100
AcDbEntity
  8
C00-00-00-BLACK
100
AcDbPolyline
 90
6
 70
 0
  6
CONTINUOUS
 10
142.132
 20
6.45474
 30
0.0
 10
142.285
 20
7.40265
 30
0.0
 10
142.711
 20
8.22582
 30
0.0
 10
143.361
 20
8.87488
 30
0.0
 10
144.184
 20
9.30051
 30
0.0
 10
145.132
 20
9.45335
 30
0.0
  0
LINE
  5
15c
100
AcDbEntity
  8
C00-00-00-BLACK
100
AcDbLine
  6
CONTINUOUS
 10
145.132
 20
9.45335
 30
0.0
 11
145.132
 21
9.45335
 31
0.0
  0
LWPOLYLINE
  5
15d
100
AcDbEntity
  8
C00-00-00-BLACK
100
AcDbPolyline
 90
6
 70
 0
  6
CONTINUOUS
 10
190.132
 20
9.45335
 30
0.0
 10
190.604
 20
9.41656
 30
0.0
 10
191.06
 20
9.30687
 30
0.0
 10
191.492
 20
9.1278
 30
0.0
 10
191.893
 20
8.88285
 30
0.0
 10
192.253
 20
8.57553
 30
0.0
  0
LWPOLYLINE
  5
15e
100
AcDbEntity
  8
C00-00-00-BLACK
100
AcDbPolyline
 90
6
 70
 0
  6
CONTINUOUS
 10
192.253
 20
8.57553
 30
0.0
 10
192.561
 20
8.2154
 30
0.0
 10
192.806
 20
7.81512
 30
0.0
 10
192.985
 20
7.38282
 30
0.0
 10
193.095
 20
6.92665
 30
0.0
 10
193.132
 20
6.45474
 30
0.0
  0
LWPOLYLINE
  5
15f
100
AcDbEntity
  8
C00-00-00-BLACK
100
AcDbPolyline
 90
6
 70
 0
  6
CONTINUOUS
 10
193.132
 20
6.45474
 30
0.0
 10
193.095
 20
5.98215
 30
0.0
 10
192.985
 20
5.52557
 30
0.0
 10
192.806
 20
5.09306
 30
0.0
 10
192.561
 20
4.6927
 30
0.0
 10
192.254
 20
4.33257
 30
0.0
  0
LWPOLYLINE
  5
160
100
AcDbEntity
  8
C00-00-00-BLACK
100
AcDbPolyline
 90
6
 70
 0
  6
CONTINUOUS
 10
192.254
 20
4.33257
 30
0.0
 10
191.894
 20
4.02523
 30
0.0
 10
191.493
 20
3.78019
 30
0.0
 10
191.06
 20
3.60091
 30
0.0
 10
190.604
 20
3.49082
 30
0.0
 10
190.132
 20
3.45336
 30
0.0
  0
LWPOLYLINE
  5
161
100
AcDbEntity
  8
C00-00-00-BLACK
100
AcDbPolyline
 90
6
 70
 0
  6
CONTINUOUS
 10
190.132
 20
3.45336
 30
0.0
 10
189.66
 20
3.49082
 30
0.0
 10
189.204
 20
3.60091
 30
0.0
 10
188.772
 20
3.78019
 30
0.0
 10
188.371
 20
4.02523
 30
0.0
 10
188.011
 20
4.33257
 30
0.0
  0
LWPOLYLINE
  5
162
100
AcDbEntity
  8
C00-00-00-BLACK
100
AcDbPolyline
 90
6
 70
 0
  6
CONTINUOUS
 10
188.011
 20
4.33257
 30
0.0
 10
187.703
 20
4.6927
 30
0.0
 10
187.458
 20
5.09306
 30
0.0
 10
187.279
 20
5.52557
 30
0.0
 10
187.169
 20
5.98215
 30
0.0
 10
187.132
 20
6.45474
 30
0.0
  0
LWPOLYLINE
  5
163
100
AcDbEntity
  8
C00-00-00-BLACK
100
AcDbPolyline
 90
6
 70
 0
  6
CONTINUOUS
 10
187.132
 20
6.45474
 30
0.0
 10
187.285
 20
7.40265
 30
0.0
 10
187.711
 20
8.22582
 30
0.0
 10
188.361
 20
8.87488
 30
0.0
 10
189.184
 20
9.30051
 30
0.0
 10
190.132
 20
9.45335
 30
0.0
  0
LINE
  5
164
100
AcDbEntity
  8
C00-00-00-BLACK
100
AcDbLine
  6
CONTINUOUS
 10
190.132
 20
9.45335
 30
0.0
 11
190.132
 21
9.45335
 31
0.0
  0
ENDSEC
  0
SECTION
  2
OBJECTS
  0
DICTIONARY
  5
C
330
0
100
AcDbDictionary
  3
ACAD_GROUP
350
D
  3
ACAD_LAYOUT
350
1A
  3
ACAD_MLINESTYLE
350
17
  3
ACAD_PLOTSETTINGS
350
19
  3
ACAD_PLOTSTYLENAME
350
E
  3
ACDBHEADERROUNDTRIPXREC
350
2F
  0
DICTIONARY
  5
52
330
1F
100
AcDbDictionary
280
     1
  3
ACAD_LAYOUTSELFREF
360
53
  0
DICTIONARY
  5
50
330
1B
100
AcDbDictionary
280
     1
  3
ACAD_LAYOUTSELFREF
360
51
  0
DICTIONARY
  5
D
102
{ACAD_REACTORS
330
C
102
}
330
C
100
AcDbDictionary
  0
DICTIONARY
  5
1A
102
{ACAD_REACTORS
330
C
102
}
330
C
100
AcDbDictionary
  0
DICTIONARY
  5
17
102
{ACAD_REACTORS
330
C
102
}
330
C
100
AcDbDictionary
  3
STANDARD
350
18
  0
DICTIONARY
  5
19
102
{ACAD_REACTORS
330
C
102
}
330
C
100
AcDbDictionary
  0
ACDBDICTIONARYWDFLT
  5
E
102
{ACAD_REACTORS
330
C
102
}
330
C
100
AcDbDictionary
281
     1
  3
Normal
350
F
100
AcDbDictionaryWithDefault
340
F
  0
DICTIONARY
  5
2F
102
{ACAD_REACTORS
330
C
102
}
330
C
100
AcDbDictionary
  3
CEPSNTYPE
350
39
  3
DIMSTYLEDATA
350
3D
  3
FINGERPRINTGUID
350
3A
  3
HYPERLINKBASE
350
32
  3
INSUNITS
350
38
  3
LAYOUTDICT
350
34
  3
LWETCUNION
350
37
  3
PLOTSETDICT
350
35
  3
PLOTSTYLNAMDICT
350
36
  3
PSVPSCALE
350
3C
  3
PUCSBASE
350
40
  3
PUCSORGBACK
350
46
  3
PUCSORGBOTTOM
350
42
  3
PUCSORGFRONT
350
45
  3
PUCSORGLEFT
350
43
  3
PUCSORGRIGHT
350
44
  3
PUCSORGTOP
350
41
  3
PUCSORTHOREF
350
3E
  3
PUCSORTHOVIEW
350
3F
  3
STYLESHEET
350
33
  3
TSTACKALIGN
350
30
  3
TSTACKSIZE
350
31
  3
UCSBASE
350
49
  3
UCSORGBACK
350
4F
  3
UCSORGBOTTOM
350
4B
  3
UCSORGFRONT
350
4E
  3
UCSORGLEFT
350
4C
  3
UCSORGRIGHT
350
4D
  3
UCSORGTOP
350
4A
  3
UCSORTHOREF
350
47
  3
UCSORTHOVIEW
350
48
  3
VERSIONGUID
350
3B
  0
XRECORD
  5
53
102
{ACAD_REACTORS
330
52
102
}
330
52
100
AcDbXrecord
340
1F
  0
XRECORD
  5
51
102
{ACAD_REACTORS
330
50
102
}
330
50
100
AcDbXrecord
340
1B
  0
MLINESTYLE
  5
18
102
{ACAD_REACTORS
330
17
102
}
330
17
100
AcDbMlineStyle
  2
STANDARD
 70
     0
  3

 62
   256
 51
90.0
 52
90.0
 71
     2
 49
0.5
 62
   256
  6
BYLAYER
 49
-0.5
 62
   256
  6
BYLAYER
  0
ACDBPLACEHOLDER
  5
F
102
{ACAD_REACTORS
330
E
102
}
330
E
100
AcDbPlaceHolder
280
     0
  0
XRECORD
  5
39
102
{ACAD_REACTORS
330
2F
102
}
330
2F
100
AcDbXrecord
 90
        0
  0
XRECORD
  5
3D
102
{ACAD_REACTORS
330
2F
102
}
330
2F
100
AcDbXrecord
1000
DSTYLE
1002
{
1070
   278
 70
    44
1002
}
  0
XRECORD
  5
3A
102
{ACAD_REACTORS
330
2F
102
}
330
2F
100
AcDbXrecord
  1
{705446A6-11D0-4548-8F8C-A97DCA50327D}
  0
XRECORD
  5
32
102
{ACAD_REACTORS
330
2F
102
}
330
2F
100
AcDbXrecord
  1

  0
XRECORD
  5
38
102
{ACAD_REACTORS
330
2F
102
}
330
2F
100
AcDbXrecord
 90
        4
  0
XRECORD
  5
34
102
{ACAD_REACTORS
330
2F
102
}
330
2F
100
AcDbXrecord
340
1A
  0
XRECORD
  5
37
102
{ACAD_REACTORS
330
2F
102
}
330
2F
100
AcDbXrecord
 90
    10781
  0
XRECORD
  5
35
102
{ACAD_REACTORS
330
2F
102
}
330
2F
100
AcDbXrecord
340
19
  0
XRECORD
  5
36
102
{ACAD_REACTORS
330
2F
102
}
330
2F
100
AcDbXrecord
340
E
  0
XRECORD
  5
3C
102
{ACAD_REACTORS
330
2F
102
}
330
2F
100
AcDbXrecord
 40
0.0
  0
XRECORD
  5
40
102
{ACAD_REACTORS
330
2F
102
}
330
2F
100
AcDbXrecord
340
0
  0
XRECORD
  5
46
102
{ACAD_REACTORS
330
2F
102
}
330
2F
100
AcDbXrecord
 10
0.0
 20
0.0
 30
0.0
  0
XRECORD
  5
42
102
{ACAD_REACTORS
330
2F
102
}
330
2F
100
AcDbXrecord
 10
0.0
 20
0.0
 30
0.0
  0
XRECORD
  5
45
102
{ACAD_REACTORS
330
2F
102
}
330
2F
100
AcDbXrecord
 10
0.0
 20
0.0
 30
0.0
  0
XRECORD
  5
43
102
{ACAD_REACTORS
330
2F
102
}
330
2F
100
AcDbXrecord
 10
0.0
 20
0.0
 30
0.0
  0
XRECORD
  5
44
102
{ACAD_REACTORS
330
2F
102
}
330
2F
100
AcDbXrecord
 10
0.0
 20
0.0
 30
0.0
  0
XRECORD
  5
41
102
{ACAD_REACTORS
330
2F
102
}
330
2F
100
AcDbXrecord
 10
0.0
 20
0.0
 30
0.0
  0
XRECORD
  5
3E
102
{ACAD_REACTORS
330
2F
102
}
330
2F
100
AcDbXrecord
340
0
  0
XRECORD
  5
3F
102
{ACAD_REACTORS
330
2F
102
}
330
2F
100
AcDbXrecord
 70
     0
  0
XRECORD
  5
33
102
{ACAD_REACTORS
330
2F
102
}
330
2F
100
AcDbXrecord
  1

  0
XRECORD
  5
30
102
{ACAD_REACTORS
330
2F
102
}
330
2F
100
AcDbXrecord
 90
        1
  0
XRECORD
  5
31
102
{ACAD_REACTORS
330
2F
102
}
330
2F
100
AcDbXrecord
 90
       70
  0
XRECORD
  5
49
102
{ACAD_REACTORS
330
2F
102
}
330
2F
100
AcDbXrecord
340
0
  0
XRECORD
  5
4F
102
{ACAD_REACTORS
330
2F
102
}
330
2F
100
AcDbXrecord
 10
0.0
 20
0.0
 30
0.0
  0
XRECORD
  5
4B
102
{ACAD_REACTORS
330
2F
102
}
330
2F
100
AcDbXrecord
 10
0.0
 20
0.0
 30
0.0
  0
XRECORD
  5
4E
102
{ACAD_REACTORS
330
2F
102
}
330
2F
100
AcDbXrecord
 10
0.0
 20
0.0
 30
0.0
  0
XRECORD
  5
4C
102
{ACAD_REACTORS
330
2F
102
}
330
2F
100
AcDbXrecord
 10
0.0
 20
0.0
 30
0.0
  0
XRECORD
  5
4D
102
{ACAD_REACTORS
330
2F
102
}
330
2F
100
AcDbXrecord
 10
0.0
 20
0.0
 30
0.0
  0
XRECORD
  5
4A
102
{ACAD_REACTORS
330
2F
102
}
330
2F
100
AcDbXrecord
 10
0.0
 20
0.0
 30
0.0
  0
XRECORD
  5
47
102
{ACAD_REACTORS
330
2F
102
}
330
2F
100
AcDbXrecord
340
0
  0
XRECORD
  5
48
102
{ACAD_REACTORS
330
2F
102
}
330
2F
100
AcDbXrecord
 70
     0
  0
XRECORD
  5
3B
102
{ACAD_REACTORS
330
2F
102
}
330
2F
100
AcDbXrecord
  1
{33328E3A-B6B8-4979-86B7-D70DEC2867C2}
  0
ENDSEC
  0
EOF
