<?xml version="1.0" encoding="UTF-8" standalone="no"?>
<!-- Created with Inkscape (http://www.inkscape.org/) -->

<svg
   xmlns:dc="http://purl.org/dc/elements/1.1/"
   xmlns:cc="http://creativecommons.org/ns#"
   xmlns:rdf="http://www.w3.org/1999/02/22-rdf-syntax-ns#"
   xmlns:svg="http://www.w3.org/2000/svg"
   xmlns="http://www.w3.org/2000/svg"
   xmlns:sodipodi="http://sodipodi.sourceforge.net/DTD/sodipodi-0.dtd"
   xmlns:inkscape="http://www.inkscape.org/namespaces/inkscape"
   width="290mm"
   height="385mm"
   viewBox="0 0 290.00002 385.00001"
   version="1.1"
   id="svg8"
   inkscape:version="0.92.2 5c3e80d, 2017-08-06"
   sodipodi:docname="wrapover-faceshield-laser.svg">
  <defs
     id="defs2" />
  <sodipodi:namedview
     id="base"
     pagecolor="#ffffff"
     bordercolor="#666666"
     borderopacity="1.0"
     inkscape:pageopacity="0.0"
     inkscape:pageshadow="2"
     inkscape:zoom="0.46839528"
     inkscape:cx="-548.3635"
     inkscape:cy="727.55904"
     inkscape:document-units="mm"
     inkscape:current-layer="layer1"
     showgrid="false"
     units="mm"
     inkscape:window-width="1680"
     inkscape:window-height="1006"
     inkscape:window-x="0"
     inkscape:window-y="1"
     inkscape:window-maximized="1" />
  <metadata
     id="metadata5">
    <rdf:RDF>
      <cc:Work
         rdf:about="">
        <dc:format>image/svg+xml</dc:format>
        <dc:type
           rdf:resource="http://purl.org/dc/dcmitype/StillImage" />
        <dc:title />
      </cc:Work>
    </rdf:RDF>
  </metadata>
  <g
     inkscape:label="Layer 1"
     inkscape:groupmode="layer"
     id="layer1"
     transform="translate(0,87.999988)">
    <path
       style="opacity:1;fill:none;fill-opacity:1;stroke:#000000;stroke-width:1.00000001;stroke-linecap:square;stroke-linejoin:round;stroke-miterlimit:4;stroke-dasharray:none;stroke-dashoffset:0;stroke-opacity:1"
       d="m 94.488281,272.88281 c -45.793412,0 -59.620211,26.29812 -66.773437,75.3125 C 19.818576,402.30106 0,561.75372 0,707.52734 V 1539.0234 A 188.97638,188.97638 0 0 0 188.97656,1728 H 907.08594 A 188.97638,188.97638 0 0 0 1096.0625,1539.0234 V 707.52734 c 0,-145.77362 -19.8186,-305.22628 -27.7148,-359.33203 -7.1533,-49.01438 -20.9801,-75.3125 -66.7735,-75.3125 -45.79336,0 -59.62021,26.29812 -66.77342,75.3125 -7.89626,54.10575 -27.71484,213.55841 -27.71484,359.33203 0,-145.77362 -23.78227,-305.22628 -33.25782,-359.33203 -8.58386,-49.01438 -25.17485,-75.3125 -80.12695,-75.3125 -54.9521,0 -71.54503,26.29812 -80.1289,75.3125 -9.47551,54.10575 -33.25782,213.55841 -33.25782,359.33203 0,-145.77362 -27.746,-305.22628 -38.80078,-359.33203 -10.01454,-49.01438 -29.37165,-75.3125 -93.48242,-75.3125 -64.11077,0 -83.46792,26.29812 -93.48242,75.3125 -11.05478,54.10575 -38.80078,213.55841 -38.80078,359.33203 0,-145.77362 -23.78228,-305.22628 -33.25782,-359.33203 -8.58385,-49.01438 -25.1768,-75.3125 -80.1289,-75.3125 -54.9521,0 -71.54309,26.29812 -80.12695,75.3125 -9.47553,54.10575 -33.25782,213.55841 -33.25782,359.33203 0,-145.77362 -19.81857,-305.22628 -27.71484,-359.33203 -7.15323,-49.01438 -20.98003,-75.3125 -66.773439,-75.3125 z m 0,25.79492 a 5.9999994,5.9999994 0 0 1 5.999999,6 5.9999994,5.9999994 0 0 1 -5.999999,6 5.9999994,5.9999994 0 0 1 -6,-6 5.9999994,5.9999994 0 0 1 6,-6 z m 207.873049,0 a 5.9999994,5.9999994 0 0 1 6,6 5.9999994,5.9999994 0 0 1 -6,6 5.9999994,5.9999994 0 0 1 -6,-6 5.9999994,5.9999994 0 0 1 6,-6 z m 245.66992,0 a 5.9999994,5.9999994 0 0 1 6,6 5.9999994,5.9999994 0 0 1 -6,6 5.9999994,5.9999994 0 0 1 -6,-6 5.9999994,5.9999994 0 0 1 6,-6 z m 245.66992,0 a 5.9999994,5.9999994 0 0 1 6,6 5.9999994,5.9999994 0 0 1 -6,6 5.9999994,5.9999994 0 0 1 -6,-6 5.9999994,5.9999994 0 0 1 6,-6 z m 207.87303,0 a 5.9999994,5.9999994 0 0 1 6,6 5.9999994,5.9999994 0 0 1 -6,6 5.9999994,5.9999994 0 0 1 -5.99998,-6 5.9999994,5.9999994 0 0 1 5.99998,-6 z M 136.06445,847.37109 a 11.338583,11.338583 0 0 1 11.33789,11.33789 11.338583,11.338583 0 0 1 -11.33789,11.3379 11.338583,11.338583 0 0 1 -11.33984,-11.3379 11.338583,11.338583 0 0 1 11.33984,-11.33789 z m 298.58203,0 a 11.338583,11.338583 0 0 1 11.3379,11.33789 11.338583,11.338583 0 0 1 -11.3379,11.3379 11.338583,11.338583 0 0 1 -11.33789,-11.3379 11.338583,11.338583 0 0 1 11.33789,-11.33789 z m 226.77149,0 a 11.338583,11.338583 0 0 1 11.33984,11.33789 11.338583,11.338583 0 0 1 -11.33984,11.3379 11.338583,11.338583 0 0 1 -11.33789,-11.3379 11.338583,11.338583 0 0 1 11.33789,-11.33789 z m 298.58203,0 A 11.338583,11.338583 0 0 1 971.33984,858.70898 11.338583,11.338583 0 0 1 960,870.04688 11.338583,11.338583 0 0 1 948.66211,858.70898 11.338583,11.338583 0 0 1 960,847.37109 Z M 377.95312,1693.9844 a 11.338583,11.338583 0 0 1 11.3379,11.3379 11.338583,11.338583 0 0 1 -11.3379,11.3398 11.338583,11.338583 0 0 1 -11.33789,-11.3398 11.338583,11.338583 0 0 1 11.33789,-11.3379 z m 170.07813,0 a 11.338583,11.338583 0 0 1 11.33984,11.3379 11.338583,11.338583 0 0 1 -11.33984,11.3398 11.338583,11.338583 0 0 1 -11.33789,-11.3398 11.338583,11.338583 0 0 1 11.33789,-11.3379 z m 170.07813,0 a 11.338583,11.338583 0 0 1 11.33984,11.3379 11.338583,11.338583 0 0 1 -11.33984,11.3398 11.338583,11.338583 0 0 1 -11.3379,-11.3398 11.338583,11.338583 0 0 1 11.3379,-11.3379 z"
       transform="matrix(0.26458333,0,0,0.26458333,0,-160.2)"
       id="path1664"
       inkscape:connector-curvature="0" />
  </g>
</svg>
